<mxfile host="app.diagrams.net" modified="2020-04-07T09:16:55.591Z" agent="Mozilla/5.0 (Windows NT 10.0; Win64; x64; rv:74.0) Gecko/20100101 Firefox/74.0" etag="yiAFRsivH_8zxVq2LKN6" version="12.9.3" type="github" pages="2">
  <diagram id="KagBUMG2eLl4bxCx3WLD" name="createTable">
    <mxGraphModel dx="1675" dy="1047" grid="1" gridSize="10" guides="1" tooltips="1" connect="1" arrows="1" fold="1" page="1" pageScale="1" pageWidth="827" pageHeight="1169" math="0" shadow="0">
      <root>
        <mxCell id="DDuBjIrmXX7jxwNkTjgw-0" />
        <mxCell id="DDuBjIrmXX7jxwNkTjgw-1" parent="DDuBjIrmXX7jxwNkTjgw-0" />
        <mxCell id="DDuBjIrmXX7jxwNkTjgw-5" value="start" style="strokeWidth=2;html=1;shape=mxgraph.flowchart.start_1;whiteSpace=wrap;" vertex="1" parent="DDuBjIrmXX7jxwNkTjgw-1">
          <mxGeometry x="383" y="50" width="60" height="40" as="geometry" />
        </mxCell>
        <mxCell id="DDuBjIrmXX7jxwNkTjgw-6" value="Creat Group" style="rounded=1;whiteSpace=wrap;html=1;absoluteArcSize=1;arcSize=14;strokeWidth=2;" vertex="1" parent="DDuBjIrmXX7jxwNkTjgw-1">
          <mxGeometry x="375" y="130" width="76" height="40" as="geometry" />
        </mxCell>
        <mxCell id="DDuBjIrmXX7jxwNkTjgw-7" value="Parent ID specifiled" style="strokeWidth=2;html=1;shape=mxgraph.flowchart.decision;whiteSpace=wrap;" vertex="1" parent="DDuBjIrmXX7jxwNkTjgw-1">
          <mxGeometry x="362" y="320" width="102" height="50" as="geometry" />
        </mxCell>
        <mxCell id="DDuBjIrmXX7jxwNkTjgw-8" value="&lt;div&gt;Set parent to all resources group(root)&lt;br&gt;&lt;/div&gt;&lt;div&gt;&lt;br&gt;&lt;/div&gt;" style="rounded=1;whiteSpace=wrap;html=1;absoluteArcSize=1;arcSize=14;strokeWidth=2;" vertex="1" parent="DDuBjIrmXX7jxwNkTjgw-1">
          <mxGeometry x="170" y="480" width="120" height="60" as="geometry" />
        </mxCell>
        <mxCell id="DDuBjIrmXX7jxwNkTjgw-10" value="&lt;div&gt;1. group table&lt;/div&gt;&lt;div&gt;2. group assiociation table&lt;/div&gt;&lt;div&gt;3. resource asso table&lt;br&gt;&lt;/div&gt;" style="strokeWidth=2;html=1;shape=mxgraph.flowchart.database;whiteSpace=wrap;" vertex="1" parent="DDuBjIrmXX7jxwNkTjgw-1">
          <mxGeometry x="353" y="600" width="120" height="80" as="geometry" />
        </mxCell>
        <mxCell id="DDuBjIrmXX7jxwNkTjgw-11" value="&lt;div&gt;update tables&lt;br&gt;&lt;/div&gt;" style="rounded=1;whiteSpace=wrap;html=1;absoluteArcSize=1;arcSize=14;strokeWidth=2;" vertex="1" parent="DDuBjIrmXX7jxwNkTjgw-1">
          <mxGeometry x="353" y="480" width="120" height="60" as="geometry" />
        </mxCell>
        <mxCell id="DDuBjIrmXX7jxwNkTjgw-12" value="" style="endArrow=classic;html=1;entryX=0.5;entryY=0;entryDx=0;entryDy=0;exitX=0.5;exitY=1;exitDx=0;exitDy=0;exitPerimeter=0;" edge="1" parent="DDuBjIrmXX7jxwNkTjgw-1" source="DDuBjIrmXX7jxwNkTjgw-7" target="DDuBjIrmXX7jxwNkTjgw-11">
          <mxGeometry width="50" height="50" relative="1" as="geometry">
            <mxPoint x="420" y="370" as="sourcePoint" />
            <mxPoint x="420" y="450" as="targetPoint" />
          </mxGeometry>
        </mxCell>
        <mxCell id="DDuBjIrmXX7jxwNkTjgw-14" value="" style="endArrow=classic;html=1;entryX=0.417;entryY=0;entryDx=0;entryDy=0;entryPerimeter=0;exitX=0;exitY=0.5;exitDx=0;exitDy=0;exitPerimeter=0;" edge="1" parent="DDuBjIrmXX7jxwNkTjgw-1" source="DDuBjIrmXX7jxwNkTjgw-7" target="DDuBjIrmXX7jxwNkTjgw-8">
          <mxGeometry width="50" height="50" relative="1" as="geometry">
            <mxPoint x="220" y="440" as="sourcePoint" />
            <mxPoint x="270" y="390" as="targetPoint" />
            <Array as="points">
              <mxPoint x="220" y="345" />
            </Array>
          </mxGeometry>
        </mxCell>
        <mxCell id="DDuBjIrmXX7jxwNkTjgw-15" value="" style="endArrow=classic;html=1;" edge="1" parent="DDuBjIrmXX7jxwNkTjgw-1">
          <mxGeometry width="50" height="50" relative="1" as="geometry">
            <mxPoint x="412.5" y="90" as="sourcePoint" />
            <mxPoint x="413" y="130" as="targetPoint" />
          </mxGeometry>
        </mxCell>
        <mxCell id="DDuBjIrmXX7jxwNkTjgw-16" value="" style="endArrow=classic;html=1;" edge="1" parent="DDuBjIrmXX7jxwNkTjgw-1">
          <mxGeometry width="50" height="50" relative="1" as="geometry">
            <mxPoint x="412.5" y="170" as="sourcePoint" />
            <mxPoint x="413" y="210" as="targetPoint" />
          </mxGeometry>
        </mxCell>
        <mxCell id="DDuBjIrmXX7jxwNkTjgw-17" value="" style="endArrow=classic;html=1;entryX=0.5;entryY=0;entryDx=0;entryDy=0;entryPerimeter=0;" edge="1" parent="DDuBjIrmXX7jxwNkTjgw-1" target="DDuBjIrmXX7jxwNkTjgw-10">
          <mxGeometry width="50" height="50" relative="1" as="geometry">
            <mxPoint x="412.5" y="540" as="sourcePoint" />
            <mxPoint x="413" y="580" as="targetPoint" />
          </mxGeometry>
        </mxCell>
        <mxCell id="DDuBjIrmXX7jxwNkTjgw-18" value="yes" style="text;html=1;strokeColor=none;fillColor=none;align=center;verticalAlign=middle;whiteSpace=wrap;rounded=0;" vertex="1" parent="DDuBjIrmXX7jxwNkTjgw-1">
          <mxGeometry x="250" y="320" width="40" height="20" as="geometry" />
        </mxCell>
        <mxCell id="DDuBjIrmXX7jxwNkTjgw-19" value="no" style="text;html=1;strokeColor=none;fillColor=none;align=center;verticalAlign=middle;whiteSpace=wrap;rounded=0;" vertex="1" parent="DDuBjIrmXX7jxwNkTjgw-1">
          <mxGeometry x="413" y="400" width="40" height="20" as="geometry" />
        </mxCell>
        <mxCell id="NOASVmpPuM6bjoAS4klr-0" value="Static group?" style="strokeWidth=2;html=1;shape=mxgraph.flowchart.decision;whiteSpace=wrap;" vertex="1" parent="DDuBjIrmXX7jxwNkTjgw-1">
          <mxGeometry x="363" y="210" width="100" height="50" as="geometry" />
        </mxCell>
        <mxCell id="NOASVmpPuM6bjoAS4klr-1" value="update DB" style="rounded=1;whiteSpace=wrap;html=1;absoluteArcSize=1;arcSize=14;strokeWidth=2;" vertex="1" parent="DDuBjIrmXX7jxwNkTjgw-1">
          <mxGeometry x="580" y="330" width="100" height="40" as="geometry" />
        </mxCell>
        <mxCell id="NOASVmpPuM6bjoAS4klr-4" value="&lt;div&gt;&lt;b&gt;1. group table&lt;/b&gt;&lt;/div&gt;&lt;div&gt;&lt;b&gt;2. resource asso table&lt;br&gt;&lt;/b&gt;&lt;/div&gt;" style="strokeWidth=2;html=1;shape=mxgraph.flowchart.database;whiteSpace=wrap;" vertex="1" parent="DDuBjIrmXX7jxwNkTjgw-1">
          <mxGeometry x="570" y="430" width="120" height="80" as="geometry" />
        </mxCell>
        <mxCell id="NOASVmpPuM6bjoAS4klr-5" style="edgeStyle=orthogonalEdgeStyle;rounded=0;orthogonalLoop=1;jettySize=auto;html=1;exitX=0.5;exitY=1;exitDx=0;exitDy=0;exitPerimeter=0;" edge="1" parent="DDuBjIrmXX7jxwNkTjgw-1" source="NOASVmpPuM6bjoAS4klr-4" target="NOASVmpPuM6bjoAS4klr-4">
          <mxGeometry relative="1" as="geometry" />
        </mxCell>
        <mxCell id="NOASVmpPuM6bjoAS4klr-6" value="" style="endArrow=classic;html=1;entryX=0.5;entryY=0;entryDx=0;entryDy=0;entryPerimeter=0;" edge="1" parent="DDuBjIrmXX7jxwNkTjgw-1" target="NOASVmpPuM6bjoAS4klr-4">
          <mxGeometry width="50" height="50" relative="1" as="geometry">
            <mxPoint x="629.41" y="370" as="sourcePoint" />
            <mxPoint x="629.9099999999997" y="410" as="targetPoint" />
          </mxGeometry>
        </mxCell>
        <mxCell id="NOASVmpPuM6bjoAS4klr-7" value="" style="endArrow=classic;html=1;exitX=1;exitY=0.5;exitDx=0;exitDy=0;exitPerimeter=0;entryX=0.5;entryY=0;entryDx=0;entryDy=0;" edge="1" parent="DDuBjIrmXX7jxwNkTjgw-1" source="NOASVmpPuM6bjoAS4klr-0" target="NOASVmpPuM6bjoAS4klr-1">
          <mxGeometry width="50" height="50" relative="1" as="geometry">
            <mxPoint x="620" y="240" as="sourcePoint" />
            <mxPoint x="670" y="190" as="targetPoint" />
            <Array as="points">
              <mxPoint x="630" y="235" />
            </Array>
          </mxGeometry>
        </mxCell>
        <mxCell id="NOASVmpPuM6bjoAS4klr-8" value="" style="endArrow=classic;html=1;entryX=0.5;entryY=0;entryDx=0;entryDy=0;entryPerimeter=0;" edge="1" parent="DDuBjIrmXX7jxwNkTjgw-1" target="DDuBjIrmXX7jxwNkTjgw-7">
          <mxGeometry width="50" height="50" relative="1" as="geometry">
            <mxPoint x="411.82" y="260" as="sourcePoint" />
            <mxPoint x="412.31999999999977" y="300" as="targetPoint" />
          </mxGeometry>
        </mxCell>
        <mxCell id="NOASVmpPuM6bjoAS4klr-9" value="yes" style="text;html=1;strokeColor=none;fillColor=none;align=center;verticalAlign=middle;whiteSpace=wrap;rounded=0;" vertex="1" parent="DDuBjIrmXX7jxwNkTjgw-1">
          <mxGeometry x="530" y="210" width="40" height="20" as="geometry" />
        </mxCell>
        <mxCell id="NOASVmpPuM6bjoAS4klr-10" value="no" style="text;html=1;strokeColor=none;fillColor=none;align=center;verticalAlign=middle;whiteSpace=wrap;rounded=0;" vertex="1" parent="DDuBjIrmXX7jxwNkTjgw-1">
          <mxGeometry x="411" y="270" width="40" height="20" as="geometry" />
        </mxCell>
      </root>
    </mxGraphModel>
  </diagram>
  <diagram id="rGwcOpjaG0KLCDccLJ4y" name="Page-1">
    <mxGraphModel dx="1038" dy="553" grid="1" gridSize="10" guides="1" tooltips="1" connect="1" arrows="1" fold="1" page="1" pageScale="1" pageWidth="827" pageHeight="1169" math="0" shadow="0">
      <root>
        <mxCell id="0" />
        <mxCell id="1" parent="0" />
      </root>
    </mxGraphModel>
  </diagram>
</mxfile>
